STARTFONT 2.1
FONT -Monotype-Monotype Corsiva-Regular-R-Normal--33-240-100-100-P-152-iso8859-2
SIZE 24 100 100
FONTBOUNDINGBOX 41 38 -6 -11

STARTPROPERTIES 24
FOUNDRY "Monotype"
FAMILY_NAME "Monotype Corsiva"
WEIGHT_NAME "Regular"
SLANT "R"
SETWIDTH_NAME "Normal"
ADD_STYLE_NAME ""
PIXEL_SIZE 33
POINT_SIZE 240
RESOLUTION_X 100
RESOLUTION_Y 100
SPACING "P"
AVERAGE_WIDTH 152
CHARSET_REGISTRY "iso8859"
CHARSET_ENCODING "2"
FACE_NAME "Monotype Corsiva ISO Latin2"
_DEC_DEVICE_FONTNAMES "PS=monotypecorsiva-lat2"
COPYRIGHT "Copyright (c) 1993 Monotype Typography Ltd."
CAP_HEIGHT 24
X_HEIGHT 16
WEIGHT 10
QUAD_WIDTH 18
DEFAULT_CHAR 160
FONT_DESCENT 11
FONT_ASCENT 27
ENDPROPERTIES

CHARS 191

STARTCHAR space
ENCODING 32
SWIDTH 220 0
DWIDTH 7 0
BBX 0 0 0 0
BITMAP
ENDCHAR

STARTCHAR exclam
ENCODING 33
SWIDTH 280 0
DWIDTH 9 0
BBX 6 20 4 0
BITMAP
1C
1C
18
18
18
18
10
30
30
30
20
20
20
20
00
00
60
E0
E0
C0
ENDCHAR

STARTCHAR quotedbl
ENCODING 34
SWIDTH 220 0
DWIDTH 7 0
BBX 8 8 4 11
BITMAP
33
62
66
66
44
44
C4
88
ENDCHAR

STARTCHAR numbersign
ENCODING 35
SWIDTH 680 0
DWIDTH 22 0
BBX 17 19 6 0
BITMAP
01C600
018400
018C00
030C00
030C00
3FFF80
7FFF80
061800
063000
043000
0C2000
FFFE00
FFFE00
186000
18C000
18C000
30C000
308000
318000
ENDCHAR

STARTCHAR dollar
ENCODING 36
SWIDTH 440 0
DWIDTH 15 0
BBX 13 25 3 -4
BITMAP
0060
0040
00F0
03B8
0648
0480
0C80
0C80
0F00
0700
0780
01C0
03C0
02E0
0260
0260
0440
0440
4480
FF00
7C00
0800
0800
0800
1000
ENDCHAR

STARTCHAR percent
ENCODING 37
SWIDTH 680 0
DWIDTH 22 0
BBX 17 19 5 0
BITMAP
1C0600
330400
630800
631800
C31000
C33000
C62000
C66000
4C4000
388E00
009980
013180
013180
026180
026180
046300
0C6300
082600
181C00
ENDCHAR

STARTCHAR ampersand
ENCODING 38
SWIDTH 780 0
DWIDTH 26 0
BBX 25 25 4 -2
BITMAP
00000180
00000180
00000100
0001FE00
00031000
00041000
00043000
000C2000
000C6000
0F8C6000
18C06000
20C0C000
6180C000
CE00C000
C180C000
C0C18000
C0618000
E0310000
F01B0000
780C0300
3E1E0300
1FF70300
0FE38200
0001C400
00007800
ENDCHAR

STARTCHAR quoteright
ENCODING 39
SWIDTH 240 0
DWIDTH 8 0
BBX 4 8 7 15
BITMAP
20
70
70
30
20
60
C0
80
ENDCHAR

STARTCHAR parenleft
ENCODING 40
SWIDTH 260 0
DWIDTH 9 0
BBX 13 31 3 -8
BITMAP
0008
0030
0040
0080
0100
0200
0600
0C00
0800
1800
1000
3000
3000
6000
6000
6000
4000
C000
C000
C000
C000
C000
C000
4000
4000
4000
4000
2000
2000
1000
1000
ENDCHAR

STARTCHAR parenright
ENCODING 41
SWIDTH 220 0
DWIDTH 7 0
BBX 13 31 -2 -8
BITMAP
0040
0040
0020
0020
0030
0010
0010
0010
0018
0018
0018
0018
0018
0018
0018
0010
0030
0030
0030
0060
0060
0040
00C0
0180
0180
0300
0600
0C00
1800
3000
C000
ENDCHAR

STARTCHAR asterisk
ENCODING 42
SWIDTH 420 0
DWIDTH 14 0
BBX 11 11 5 12
BITMAP
0400
0C00
0C00
0E00
FBE0
7180
3100
1300
3F00
3180
6080
ENDCHAR

STARTCHAR plus
ENCODING 43
SWIDTH 520 0
DWIDTH 17 0
BBX 14 14 5 2
BITMAP
0300
0300
0300
0300
0300
0300
FFFC
FFFC
0300
0300
0300
0300
0300
0300
ENDCHAR

STARTCHAR comma
ENCODING 44
SWIDTH 220 0
DWIDTH 7 0
BBX 5 8 1 -5
BITMAP
38
38
18
18
30
20
40
80
ENDCHAR

STARTCHAR minus
ENCODING 45
SWIDTH 600 0
DWIDTH 20 0
BBX 14 2 6 8
BITMAP
FFFC
FFFC
ENDCHAR

STARTCHAR period
ENCODING 46
SWIDTH 220 0
DWIDTH 7 0
BBX 3 4 3 0
BITMAP
60
E0
E0
C0
ENDCHAR

STARTCHAR slash
ENCODING 47
SWIDTH 340 0
DWIDTH 11 0
BBX 17 28 0 -6
BITMAP
000180
000100
000300
000600
000600
000C00
000C00
001800
001000
003000
002000
006000
00C000
00C000
018000
010000
030000
020000
060000
0C0000
0C0000
180000
180000
300000
200000
600000
400000
C00000
ENDCHAR

STARTCHAR zero
ENCODING 48
SWIDTH 440 0
DWIDTH 15 0
BBX 13 20 3 0
BITMAP
03C0
0C60
0C30
1830
3838
3038
7038
7038
6038
E038
E038
E030
E070
E070
E060
E0E0
60C0
7180
3380
1E00
ENDCHAR

STARTCHAR one
ENCODING 49
SWIDTH 440 0
DWIDTH 15 0
BBX 11 20 3 0
BITMAP
0020
0060
00E0
07E0
08C0
00C0
01C0
0180
0180
0180
0380
0300
0300
0300
0700
0700
0600
0E00
1E00
E1C0
ENDCHAR

STARTCHAR two
ENCODING 50
SWIDTH 440 0
DWIDTH 15 0
BBX 13 20 3 0
BITMAP
03C0
07F0
0C70
1838
1038
0038
0038
0030
0060
00E0
00C0
0180
0200
0400
0800
1000
2030
4060
FFC0
FFC0
ENDCHAR

STARTCHAR three
ENCODING 51
SWIDTH 440 0
DWIDTH 15 0
BBX 12 20 2 0
BITMAP
01E0
03F0
0470
0830
0030
0060
0040
0080
03C0
07E0
04F0
0070
0070
0070
0060
00E0
00C0
C180
E300
7C00
ENDCHAR

STARTCHAR four
ENCODING 52
SWIDTH 440 0
DWIDTH 15 0
BBX 13 20 3 0
BITMAP
0008
0010
0030
00B0
01B0
0360
0660
0460
08E0
10C0
20C0
60C0
41C0
FFF0
FFF0
0180
0180
0380
0300
0300
ENDCHAR

STARTCHAR five
ENCODING 53
SWIDTH 440 0
DWIDTH 15 0
BBX 15 20 2 0
BITMAP
0002
01FE
01FC
0200
0200
0200
0380
03E0
01E0
0070
0070
0030
0030
0030
0020
0060
0040
0080
E300
7C00
ENDCHAR

STARTCHAR six
ENCODING 54
SWIDTH 440 0
DWIDTH 15 0
BBX 14 20 4 0
BITMAP
003C
01C0
0300
0E00
1C00
1800
3800
77C0
78E0
70F0
E070
E070
E070
E070
E070
E060
6060
70C0
3980
1F00
ENDCHAR

STARTCHAR seven
ENCODING 55
SWIDTH 440 0
DWIDTH 15 0
BBX 13 20 5 -1
BITMAP
3FF8
3FF0
2020
4040
00C0
0080
0100
0200
0600
0C00
0800
1800
3000
3000
6000
6000
E000
C000
C000
C000
ENDCHAR

STARTCHAR eight
ENCODING 56
SWIDTH 440 0
DWIDTH 15 0
BBX 13 20 3 0
BITMAP
01E0
0630
0418
0C18
0C18
0C30
0E60
0740
0380
0780
0DC0
30E0
60E0
6060
C060
C060
C040
E0C0
7180
3E00
ENDCHAR

STARTCHAR nine
ENCODING 57
SWIDTH 440 0
DWIDTH 15 0
BBX 14 20 2 0
BITMAP
03E0
0630
0C38
1818
181C
381C
381C
381C
381C
381C
1C38
1C78
0FB8
0070
0060
00E0
01C0
0300
1E00
F000
ENDCHAR

STARTCHAR colon
ENCODING 58
SWIDTH 260 0
DWIDTH 9 0
BBX 5 14 3 0
BITMAP
18
38
38
30
00
00
00
00
00
00
60
E0
E0
C0
ENDCHAR

STARTCHAR semicolon
ENCODING 59
SWIDTH 240 0
DWIDTH 8 0
BBX 8 18 0 -4
BITMAP
03
07
07
06
00
00
00
00
00
00
38
38
38
18
10
30
60
C0
ENDCHAR

STARTCHAR less
ENCODING 60
SWIDTH 520 0
DWIDTH 17 0
BBX 14 15 4 2
BITMAP
0004
001C
0078
01E0
0780
1E00
F000
C000
F000
3C00
0F00
03C0
0070
001C
0004
ENDCHAR

STARTCHAR equal
ENCODING 61
SWIDTH 520 0
DWIDTH 17 0
BBX 15 8 4 6
BITMAP
FFFE
FFFE
0000
0000
0000
0000
FFFE
FFFE
ENDCHAR

STARTCHAR greater
ENCODING 62
SWIDTH 520 0
DWIDTH 17 0
BBX 15 15 5 2
BITMAP
8000
E000
7800
0E00
03C0
00F0
003C
000E
001E
00F0
03C0
0F00
3C00
F000
8000
ENDCHAR

STARTCHAR question
ENCODING 63
SWIDTH 380 0
DWIDTH 13 0
BBX 10 20 3 0
BITMAP
0E00
1F80
18C0
0040
0040
0040
00C0
01C0
0780
1F00
3E00
3800
2000
6000
0000
0000
6000
E000
E000
C000
ENDCHAR

STARTCHAR at
ENCODING 64
SWIDTH 700 0
DWIDTH 23 0
BBX 19 20 5 -1
BITMAP
00FE00
038780
0601C0
0804C0
187CE0
308C60
611860
621860
661860
C418C0
CC30C0
CC3180
CC7100
CEB600
CF3C00
E42000
600300
700C00
383800
0FC000
ENDCHAR

STARTCHAR A
ENCODING 65
SWIDTH 620 0
DWIDTH 20 0
BBX 23 23 -2 -3
BITMAP
00000C
0003FC
000C1C
001828
001068
0030D8
003098
001118
000338
000238
000438
000C30
000830
001FF0
003030
006070
004070
008070
018070
0300FE
060000
FC0000
700000
ENDCHAR

STARTCHAR B
ENCODING 66
SWIDTH 600 0
DWIDTH 20 0
BBX 19 20 2 0
BITMAP
007F00
0381C0
0600E0
08F860
107060
207060
4070C0
4061C0
806300
80FF80
80C3C0
80C0E0
C1C0E0
E1C0E0
7180E0
2180C0
0381C0
030380
070700
1FFC00
ENDCHAR

STARTCHAR C
ENCODING 67
SWIDTH 520 0
DWIDTH 17 0
BBX 17 22 3 -3
BITMAP
007E00
01C380
030180
060180
0C0100
1C0100
380100
300000
700000
700000
E00000
E00000
E00000
E00000
E00000
E00000
E00000
700400
700C00
381800
1C7000
0FC000
ENDCHAR

STARTCHAR D
ENCODING 68
SWIDTH 700 0
DWIDTH 23 0
BBX 22 20 3 0
BITMAP
00FF00
0383C0
0410F0
18F070
307038
20603C
40601C
40E01C
80E01C
80C01C
80C01C
81C01C
C1C018
618038
718030
238070
0300E0
0301C0
070700
1FFC00
ENDCHAR

STARTCHAR E
ENCODING 69
SWIDTH 620 0
DWIDTH 20 0
BBX 20 20 2 -1
BITMAP
03FFF0
0E6020
186020
20E020
20E000
40C000
40C000
C1C100
C1C100
C1FF00
C18200
638200
038000
030000
030000
070040
060060
0E0060
3FFC40
207F80
ENDCHAR

STARTCHAR F
ENCODING 70
SWIDTH 580 0
DWIDTH 19 0
BBX 21 20 3 0
BITMAP
000008
03FFE0
0C6020
106020
20E020
60E000
40C000
40C000
C1C100
C1FE00
C18200
618200
638000
038000
030000
030000
070000
060000
0E0000
3FE000
ENDCHAR

STARTCHAR G
ENCODING 71
SWIDTH 620 0
DWIDTH 20 0
BBX 18 27 4 -8
BITMAP
007F00
01C1C0
0700C0
0E00C0
1C0040
380040
380000
700000
700000
E00000
E00000
E00000
E03F80
E00E00
E00E00
700C00
700C00
3C3C00
0FD800
001800
003800
003000
003000
006000
306000
38C000
1F0000
ENDCHAR

STARTCHAR H
ENCODING 72
SWIDTH 680 0
DWIDTH 22 0
BBX 28 22 1 -1
BITMAP
000001E0
00000730
03F80610
0E380C00
18301C00
10301800
30701800
30603800
38603000
10603000
00FFF000
00C06000
00C06000
01C0E000
01C0E000
0180C000
0380C000
0301C000
0301C000
8601C000
CC03F800
78000000
ENDCHAR

STARTCHAR I
ENCODING 73
SWIDTH 380 0
DWIDTH 13 0
BBX 14 19 2 0
BITMAP
07FC
00E0
00C0
01C0
01C0
0180
0180
0380
0300
0300
0300
0700
0600
0600
0600
0E00
0C00
1C00
FF80
ENDCHAR

STARTCHAR J
ENCODING 74
SWIDTH 400 0
DWIDTH 13 0
BBX 17 23 0 -4
BITMAP
003F80
00C700
010700
020600
060E00
060E00
070C00
020C00
001C00
001800
001800
003800
003800
003000
007000
007000
006000
00E000
00C000
00C000
E18000
730000
3E0000
ENDCHAR

STARTCHAR K
ENCODING 75
SWIDTH 660 0
DWIDTH 22 0
BBX 23 24 3 -5
BITMAP
0FE1FC
30C060
41C0C0
C1C100
C18200
C18C00
C39800
036000
036000
037000
073000
063800
061800
0E1800
0E1C00
0C0C00
1C0C00
1C0E00
FF8600
000700
000302
000186
0000C6
000078
ENDCHAR

STARTCHAR L
ENCODING 76
SWIDTH 580 0
DWIDTH 19 0
BBX 18 20 2 0
BITMAP
001F00
003380
006180
00C000
018000
018000
038000
030000
030000
070000
070000
060000
060000
0E0000
0E0000
0C00C0
0C00C0
1C00C0
3BE080
FFFF00
ENDCHAR

STARTCHAR M
ENCODING 77
SWIDTH 840 0
DWIDTH 28 0
BBX 27 22 2 -1
BITMAP
00000020
001C0020
03FC00E0
061C00C0
181401C0
101402C0
30140680
20340D80
202E0B80
302E1380
382E3300
00662300
00464700
0046C700
00C68600
00870600
00870E00
01060E00
03060C00
06040C00
FC041FC0
F0000000
ENDCHAR

STARTCHAR N
ENCODING 78
SWIDTH 700 0
DWIDTH 23 0
BBX 28 22 2 -2
BITMAP
000000F0
00F801F0
071C0200
0C1C0600
183C0400
102C0400
302E0C00
302E0800
30260800
38671800
10471000
00431000
00439000
00839000
0081A000
0081E000
0181E000
0100E000
0300C000
82004000
E6004000
78004000
ENDCHAR

STARTCHAR O
ENCODING 79
SWIDTH 600 0
DWIDTH 20 0
BBX 18 19 3 0
BITMAP
01FC00
070F00
0C0780
180380
3001C0
3001C0
7001C0
6001C0
E001C0
E001C0
E001C0
E00180
E00380
E00300
F00300
700600
380C00
1C3800
0FE000
ENDCHAR

STARTCHAR P
ENCODING 80
SWIDTH 540 0
DWIDTH 18 0
BBX 20 19 2 0
BITMAP
007F80
0381C0
0C10E0
18F070
307070
206070
40E070
C0E0E0
80C1C0
80C380
81FC00
81C000
C18000
718000
238000
030000
070000
0F0000
3FF800
ENDCHAR

STARTCHAR Q
ENCODING 81
SWIDTH 600 0
DWIDTH 20 0
BBX 23 27 3 -8
BITMAP
01FC00
070F00
0C0780
180380
3001C0
3001C0
7001C0
6001C0
E001C0
E001C0
E001C0
E00180
E00380
E00300
F00300
700600
380C00
3C3800
0FE000
03C000
01E000
007000
007800
003C02
000E06
00078E
0001F8
ENDCHAR

STARTCHAR R
ENCODING 82
SWIDTH 600 0
DWIDTH 20 0
BBX 24 25 3 -5
BITMAP
01FE00
070780
080380
11E1C0
20C1C0
41C1C0
41C180
818380
818700
83FC00
83B000
C33000
633800
671800
071800
061C00
061C00
0E0C00
1E0E00
7FC600
000700
000303
000183
0000C6
00003C
ENDCHAR

STARTCHAR S
ENCODING 83
SWIDTH 460 0
DWIDTH 15 0
BBX 17 22 1 -3
BITMAP
003F80
006180
008180
018080
030100
030100
038000
038000
03C000
01E000
00F000
007800
003C00
001C00
001C00
000C00
000C00
C01C00
E01800
E03000
70E000
1F8000
ENDCHAR

STARTCHAR T
ENCODING 84
SWIDTH 500 0
DWIDTH 17 0
BBX 21 22 3 0
BITMAP
000018
000018
03FC18
0FFFE0
301800
603800
403000
803000
803000
807000
C06000
E06000
406000
00E000
00E000
00C000
00C000
01C000
01C000
018000
038000
1FF800
ENDCHAR

STARTCHAR U
ENCODING 85
SWIDTH 740 0
DWIDTH 24 0
BBX 23 23 4 0
BITMAP
00000C
00000C
00000E
002006
1FE006
30C006
41C006
C18006
C38004
C30004
C30004
07000C
060008
060008
0E0010
0E0030
0E0020
0E0060
0E00C0
0F0180
078700
03FE00
01F800
ENDCHAR

STARTCHAR V
ENCODING 86
SWIDTH 640 0
DWIDTH 21 0
BBX 23 24 4 -1
BITMAP
000004
00000E
000006
000006
03F006
1CE006
30C00C
61C008
418018
838010
838020
C30040
C30080
030100
030300
030600
030C00
031800
033000
036000
03C000
038000
030000
010000
ENDCHAR

STARTCHAR W
ENCODING 87
SWIDTH 880 0
DWIDTH 29 0
BBX 31 24 3 -1
BITMAP
00000004
0000080E
00000406
00601006
0FC03006
19807004
2380700C
4300B008
87017018
87036010
86026030
C6046020
C60C6040
060860C0
06106180
06306100
06206200
06406400
06C06C00
07807800
0700F000
0600E000
0200C000
00008000
ENDCHAR

STARTCHAR X
ENCODING 88
SWIDTH 560 0
DWIDTH 18 0
BBX 24 23 0 -2
BITMAP
000007
00001F
01F038
003060
0030C0
003880
003900
001A00
001E00
001C00
001C00
001C00
003400
006E00
004E00
008600
018600
030600
060600
0C0600
1807C0
F00000
E00000
ENDCHAR

STARTCHAR Y
ENCODING 89
SWIDTH 560 0
DWIDTH 18 0
BBX 23 22 3 0
BITMAP
00000E
00001E
008030
07C060
19C0C0
20E180
40E100
C06200
807200
807400
C03C00
E03800
403800
007000
007000
007000
006000
00E000
00E000
00E000
01C000
07FC00
ENDCHAR

STARTCHAR Z
ENCODING 90
SWIDTH 620 0
DWIDTH 20 0
BBX 20 21 2 -1
BITMAP
01F030
03FFE0
043FC0
060180
060300
020600
000C00
000800
001000
002000
004000
008000
018000
030000
060000
0C0000
180060
300060
6FF060
FFFFC0
800700
ENDCHAR

STARTCHAR bracketleft
ENCODING 91
SWIDTH 240 0
DWIDTH 8 0
BBX 11 28 2 -6
BITMAP
03E0
0300
0300
0200
0600
0600
0600
0600
0C00
0C00
0C00
0C00
0800
1800
1800
1800
1000
3000
3000
3000
3000
2000
6000
6000
6000
4000
C000
F800
ENDCHAR

STARTCHAR backslash
ENCODING 92
SWIDTH 480 0
DWIDTH 16 0
BBX 9 28 7 -6
BITMAP
C000
C000
4000
6000
6000
6000
2000
3000
3000
3000
1000
1000
1800
1800
1800
0800
0C00
0C00
0C00
0400
0600
0600
0600
0200
0300
0300
0300
0180
ENDCHAR

STARTCHAR bracketright
ENCODING 93
SWIDTH 320 0
DWIDTH 11 0
BBX 11 28 1 -6
BITMAP
03E0
0060
0060
0040
00C0
00C0
00C0
00C0
0080
0180
0180
0180
0100
0300
0300
0300
0300
0200
0600
0600
0600
0400
0C00
0C00
0C00
0C00
1800
F800
ENDCHAR

STARTCHAR asciicircum
ENCODING 94
SWIDTH 520 0
DWIDTH 17 0
BBX 8 5 8 14
BITMAP
18
3C
36
66
E3
ENDCHAR

STARTCHAR underscore
ENCODING 95
SWIDTH 500 0
DWIDTH 17 0
BBX 17 2 0 -4
BITMAP
FFFF80
FFFF80
ENDCHAR

STARTCHAR quoteleft
ENCODING 96
SWIDTH 240 0
DWIDTH 8 0
BBX 4 8 7 15
BITMAP
10
10
20
40
C0
C0
E0
E0
ENDCHAR

STARTCHAR a
ENCODING 97
SWIDTH 420 0
DWIDTH 14 0
BBX 13 15 3 0
BITMAP
0010
01F0
07F0
0860
1060
30E0
20C0
60C0
60C0
C1C0
C1C0
C288
E590
F9E0
7180
ENDCHAR

STARTCHAR b
ENCODING 98
SWIDTH 420 0
DWIDTH 14 0
BBX 11 23 4 0
BITMAP
01E0
03E0
0400
0C00
1800
1800
1800
3800
3000
33C0
37C0
38E0
70E0
70E0
60E0
60C0
E0C0
C0C0
C180
C180
C300
E600
7800
ENDCHAR

STARTCHAR c
ENCODING 99
SWIDTH 340 0
DWIDTH 11 0
BBX 10 14 3 0
BITMAP
0380
0FC0
18C0
3000
2000
6000
6000
C000
C000
C000
C080
E300
FE00
7800
ENDCHAR

STARTCHAR d
ENCODING 100
SWIDTH 440 0
DWIDTH 15 0
BBX 19 23 3 0
BITMAP
0001E0
0007E0
000C00
000800
001800
001800
003000
003000
003000
01F000
07E000
086000
106000
306000
20E000
60C000
60C000
C1C000
C1C000
C38800
E59000
F9E000
718000
ENDCHAR

STARTCHAR e
ENCODING 101
SWIDTH 340 0
DWIDTH 11 0
BBX 10 14 3 0
BITMAP
07C0
0DC0
18C0
30C0
3180
7300
6C00
7000
E000
E080
E180
E300
FE00
7800
ENDCHAR

STARTCHAR f
ENCODING 102
SWIDTH 320 0
DWIDTH 11 0
BBX 23 31 -5 -8
BITMAP
00003E
00007E
000080
000100
000300
000300
000600
000600
000600
000E00
00FFE0
000C00
000C00
001C00
001800
001800
001800
003800
003800
003000
003000
007000
006000
006000
006000
00C000
00C000
008000
010000
FE0000
780000
ENDCHAR

STARTCHAR g
ENCODING 103
SWIDTH 400 0
DWIDTH 13 0
BBX 15 23 0 -8
BITMAP
0002
003E
00FE
010C
020C
061C
041C
0C18
0C18
1838
1838
1870
1CB0
1F30
0630
1830
3030
6070
C060
C060
C0C0
6380
3E00
ENDCHAR

STARTCHAR h
ENCODING 104
SWIDTH 440 0
DWIDTH 15 0
BBX 13 23 3 0
BITMAP
00F8
03F0
0600
0400
0C00
0C00
0C00
1800
1800
1870
39F0
3A70
3460
3860
30E0
70C0
60C0
61C0
6180
E198
C1B0
C1C0
0080
ENDCHAR

STARTCHAR i
ENCODING 105
SWIDTH 240 0
DWIDTH 8 0
BBX 8 21 3 0
BITMAP
03
07
06
00
00
00
00
1C
3C
5C
98
18
38
30
30
30
70
62
64
78
60
ENDCHAR

STARTCHAR j
ENCODING 106
SWIDTH 220 0
DWIDTH 7 0
BBX 15 29 -4 -8
BITMAP
0006
000E
000C
0000
0000
0000
0000
0038
0078
01B8
0130
0030
0070
0060
0060
0060
00E0
00C0
00C0
00C0
01C0
0180
0180
0180
0300
0300
0200
E400
7800
ENDCHAR

STARTCHAR k
ENCODING 107
SWIDTH 440 0
DWIDTH 15 0
BBX 19 29 3 -6
BITMAP
00F800
01F000
020000
060000
0C0000
0C0000
0C0000
1C0000
180000
18F000
1B7000
3C3000
383000
306000
31C000
3E0000
740000
660000
630000
638000
E18000
E1C000
C0C000
00E000
006000
007060
003060
001840
000780
ENDCHAR

STARTCHAR l
ENCODING 108
SWIDTH 240 0
DWIDTH 8 0
BBX 13 23 3 0
BITMAP
00F8
03F0
0600
0600
0C00
0C00
0C00
1800
1800
1800
3800
3800
3000
3000
7000
7000
6000
6000
6000
E600
CC00
F000
6000
ENDCHAR

STARTCHAR m
ENCODING 109
SWIDTH 620 0
DWIDTH 20 0
BBX 20 14 2 0
BITMAP
0C38E0
3CF3E0
CD34E0
5E38C0
1C70C0
1871C0
186180
386180
30E380
30C380
30C330
70C3E0
71C380
000100
ENDCHAR

STARTCHAR n
ENCODING 110
SWIDTH 460 0
DWIDTH 15 0
BBX 14 14 3 0
BITMAP
1C30
3CF8
5938
9A30
1C30
3870
3860
3060
30E0
30C0
70C4
60C8
60F0
00C0
ENDCHAR

STARTCHAR o
ENCODING 111
SWIDTH 400 0
DWIDTH 13 0
BBX 12 14 3 0
BITMAP
07C0
0CE0
1870
3070
7070
6070
6070
E060
E060
E0E0
E0C0
E180
7300
3E00
ENDCHAR

STARTCHAR p
ENCODING 112
SWIDTH 440 0
DWIDTH 15 0
BBX 16 22 0 -8
BITMAP
038E
0F9F
1BE7
1343
0383
0303
0703
0606
0606
0604
0E0C
0C18
0E30
0DC0
1C00
1800
1800
1800
3800
3800
7800
FF00
ENDCHAR

STARTCHAR q
ENCODING 113
SWIDTH 400 0
DWIDTH 13 0
BBX 13 22 3 -8
BITMAP
01F8
07B0
0C70
1070
3060
2060
60E0
60E0
C0C0
C1C0
C2C0
E5C0
F980
7180
0180
0380
0300
0300
0300
0700
0F00
3FC0
ENDCHAR

STARTCHAR r
ENCODING 114
SWIDTH 300 0
DWIDTH 10 0
BBX 11 15 3 0
BITMAP
0060
1CE0
3DC0
5B00
9A00
1C00
3800
3800
3000
3000
7000
7000
6000
6000
E000
ENDCHAR

STARTCHAR s
ENCODING 115
SWIDTH 320 0
DWIDTH 11 0
BBX 11 14 2 0
BITMAP
07C0
0CE0
1860
1800
1C00
1E00
0F00
0700
0380
0380
C180
C180
E700
7C00
ENDCHAR

STARTCHAR t
ENCODING 116
SWIDTH 320 0
DWIDTH 11 0
BBX 9 18 3 0
BITMAP
0200
0C00
0C00
0C00
1C00
FF80
1800
1800
3800
3000
3000
3000
7000
6080
6300
6600
7C00
7000
ENDCHAR

STARTCHAR u
ENCODING 117
SWIDTH 460 0
DWIDTH 15 0
BBX 14 14 3 0
BITMAP
0C00
3C18
5C38
9C30
1830
1830
1870
3860
3060
30E0
7164
72C8
7CF0
70E0
ENDCHAR

STARTCHAR v
ENCODING 118
SWIDTH 440 0
DWIDTH 15 0
BBX 14 15 2 -1
BITMAP
008C
3F8C
C304
8604
CE04
0C0C
1C08
1C08
1C10
1C20
1C40
0C80
0D00
0E00
0800
ENDCHAR

STARTCHAR w
ENCODING 119
SWIDTH 680 0
DWIDTH 22 0
BBX 22 15 2 0
BITMAP
000004
1F8E0C
630E0C
860E04
CE1E04
8C1C04
1C1C08
1C1C08
1C1C10
1C3C20
1C2C60
0CDCC0
0D8D80
0F0E00
0C0C00
ENDCHAR

STARTCHAR x
ENCODING 120
SWIDTH 420 0
DWIDTH 14 0
BBX 18 20 1 -5
BITMAP
000300
030700
0F8E00
139000
01A000
01C000
01C000
01C000
01C000
02C000
02C000
04C000
086000
D86000
E06000
007000
003000
001840
0018C0
000780
ENDCHAR

STARTCHAR y
ENCODING 121
SWIDTH 400 0
DWIDTH 13 0
BBX 16 22 -1 -8
BITMAP
0383
0783
09C3
00C3
00E3
0062
0062
0072
0034
0034
0034
0038
0038
0030
0030
0020
0040
00C0
0080
4300
FE00
7800
ENDCHAR

STARTCHAR z
ENCODING 122
SWIDTH 440 0
DWIDTH 15 0
BBX 15 15 1 0
BITMAP
0002
07FC
0FF0
0810
0C20
0440
0080
0100
0200
0400
080C
100C
3E08
7FF8
81E0
ENDCHAR

STARTCHAR braceleft
ENCODING 123
SWIDTH 240 0
DWIDTH 8 0
BBX 11 28 3 -6
BITMAP
01E0
0300
0200
0600
0600
0400
0C00
0C00
0C00
0C00
1800
1800
1800
6000
3000
3000
3000
3000
6000
6000
6000
6000
C000
C000
C000
C000
6000
3800
ENDCHAR

STARTCHAR bar
ENCODING 124
SWIDTH 520 0
DWIDTH 17 0
BBX 2 31 11 -8
BITMAP
C0
C0
C0
C0
C0
C0
C0
C0
C0
C0
C0
C0
C0
C0
C0
C0
C0
C0
C0
C0
C0
C0
C0
C0
C0
C0
C0
C0
C0
C0
C0
ENDCHAR

STARTCHAR braceright
ENCODING 125
SWIDTH 240 0
DWIDTH 8 0
BBX 11 28 -1 -6
BITMAP
03C0
0060
0060
0060
0060
0060
00C0
00C0
00C0
0180
0180
0180
0180
00C0
0180
0300
0300
0300
0600
0600
0600
0600
0400
0C00
0C00
1800
3000
C000
ENDCHAR

STARTCHAR asciitilde
ENCODING 126
SWIDTH 520 0
DWIDTH 17 0
BBX 14 4 5 8
BITMAP
3C0C
7F18
C3F8
80E0
ENDCHAR

STARTCHAR space
ENCODING 160
SWIDTH 220 0
DWIDTH 8 0
BBX 0 0 0 0
BITMAP
ENDCHAR

STARTCHAR Aogonek
ENCODING 161
SWIDTH 620 0
DWIDTH 20 0
BBX 23 26 -2 -5
BITMAP
00000C
0003FC
000C1C
001834
00106C
00305C
003098
001198
000318
000218
000638
000C38
000838
001FF0
003030
002030
004030
00C030
008070
010070
03007E
060080
FC0180
700180
0001C0
0000F0
ENDCHAR

STARTCHAR breve
ENCODING 162
SWIDTH 440 0
DWIDTH 15 0
BBX 8 4 9 16
BITMAP
83
C6
FC
78
ENDCHAR

STARTCHAR Lslash
ENCODING 163
SWIDTH 580 0
DWIDTH 19 0
BBX 18 20 2 0
BITMAP
001F00
003380
006180
00C000
01C000
018000
038800
031800
037000
07C000
070000
0E0000
3A0000
6E0000
4E0000
0C00C0
0C00C0
1C00C0
3BE080
FFFF00
ENDCHAR

STARTCHAR currency
ENCODING 164
SWIDTH 600 0
DWIDTH 20 0
BBX 14 14 6 2
BITMAP
4F88
EFEC
3870
6018
E01C
C00C
C00C
C00C
C00C
601C
6010
7878
EFEC
4788
ENDCHAR

STARTCHAR Lcaron
ENCODING 165
SWIDTH 580 0
DWIDTH 19 0
BBX 21 20 1 0
BITMAP
001F38
0033B8
006198
00C010
018030
018060
038080
030000
030000
070000
070000
060000
060000
0E0000
0E0000
0C00C0
0C00C0
1C00C0
3BE080
FFFF00
ENDCHAR

STARTCHAR Sacute
ENCODING 166
SWIDTH 460 0
DWIDTH 15 0
BBX 18 29 1 -3
BITMAP
0003C0
000700
000C00
001800
000000
000000
000000
003F80
006180
008180
018080
030100
030100
038000
038000
01C000
01E000
00F000
007800
003C00
001C00
001C00
000C00
000C00
C01C00
E01800
E03000
70E000
1F0000
ENDCHAR

STARTCHAR section
ENCODING 167
SWIDTH 420 0
DWIDTH 14 0
BBX 19 29 -1 -6
BITMAP
000FC0
0018E0
003860
005000
009000
019000
011000
011000
031800
031800
031800
030800
030800
030C00
010C00
010C00
018C00
018C00
018C00
008C00
008800
008800
009800
009000
00A000
01E000
C1C000
F38000
7E0000
ENDCHAR

STARTCHAR dieresis
ENCODING 168
SWIDTH 360 0
DWIDTH 12 0
BBX 8 3 7 15
BITMAP
E7
E7
E7
ENDCHAR

STARTCHAR Scaron
ENCODING 169
SWIDTH 460 0
DWIDTH 15 0
BBX 19 29 1 -3
BITMAP
0010E0
001980
001B00
000E00
000000
000000
000000
003F80
006180
008180
018080
030100
030100
038000
038000
01C000
01E000
00F000
007800
003C00
001C00
001C00
000C00
000C00
C01C00
E01800
E03000
70E000
1F0000
ENDCHAR

STARTCHAR Scommaaccent
ENCODING 170
SWIDTH 460 0
DWIDTH 15 0
BBX 17 30 1 -11
BITMAP
003F80
006180
008180
018080
030100
030100
038000
038000
01C000
01E000
00F000
007800
003C00
001C00
001C00
000C00
000C00
C01C00
E01800
E03000
70E000
1F0000
000000
040000
0E0000
060000
060000
040000
080000
100000
ENDCHAR

STARTCHAR Tcaron
ENCODING 171
SWIDTH 500 0
DWIDTH 17 0
BBX 21 27 3 0
BITMAP
0010C0
001180
001F00
001E00
000C00
000018
000018
03FC18
0FFFE0
381800
603800
403000
803000
803000
807000
C06000
E06000
406000
00E000
00E000
00C000
00C000
01C000
01C000
018000
038000
1FF800
ENDCHAR

STARTCHAR Zacute
ENCODING 172
SWIDTH 620 0
DWIDTH 20 0
BBX 20 27 2 -1
BITMAP
0001E0
000180
000300
000600
000800
000000
000000
01F030
03FFE0
043FC0
060180
060300
020600
000C00
001800
003000
006000
00C000
018000
030000
060000
0C0000
180060
300060
6FF060
FFFEC0
C00F00
ENDCHAR

STARTCHAR hyphen
ENCODING 173
SWIDTH 280 0
DWIDTH 9 0
BBX 8 2 3 6
BITMAP
FF
FE
ENDCHAR

STARTCHAR Zcaron
ENCODING 174
SWIDTH 620 0
DWIDTH 20 0
BBX 20 27 2 -1
BITMAP
000830
000CC0
000D80
000780
000700
000000
000000
01F030
03FFE0
043FC0
060180
060300
020600
000C00
001800
003000
006000
00C000
018000
030000
060000
0C0000
180060
300060
6FF060
FFFEC0
C00F00
ENDCHAR

STARTCHAR Zdotaccent
ENCODING 175
SWIDTH 620 0
DWIDTH 20 0
BBX 20 26 2 -1
BITMAP
000700
000700
000700
000000
000000
000000
01F030
03FFE0
043FC0
060180
070300
020200
000400
000800
001000
002000
00C000
018000
030000
060000
0C0000
180060
300060
6FF060
FFFEC0
C00F80
ENDCHAR

STARTCHAR degree
ENCODING 176
SWIDTH 400 0
DWIDTH 13 0
BBX 9 9 7 10
BITMAP
1C00
7F00
6300
C180
C180
C180
6300
7F00
1C00
ENDCHAR

STARTCHAR aogonek
ENCODING 177
SWIDTH 420 0
DWIDTH 14 0
BBX 13 20 3 -5
BITMAP
0008
01F0
07F0
0C70
1860
3060
60E0
60C0
E0C0
C1C0
C0C0
E3C8
FDF0
F9E0
61C0
0080
0180
0180
01C0
00F0
ENDCHAR

STARTCHAR ogonek
ENCODING 178
SWIDTH 280 0
DWIDTH 9 0
BBX 5 6 2 -6
BITMAP
60
40
C0
C0
E0
78
ENDCHAR

STARTCHAR lslash
ENCODING 179
SWIDTH 300 0
DWIDTH 10 0
BBX 15 23 2 0
BITMAP
003E
00FC
0180
0180
0300
0300
0700
0600
0630
0660
0F80
0F00
0C00
0C00
7C00
DC00
1800
1800
1800
3980
3300
3C00
1800
ENDCHAR

STARTCHAR acute
ENCODING 180
SWIDTH 300 0
DWIDTH 10 0
BBX 6 4 8 16
BITMAP
3C
30
60
C0
ENDCHAR

STARTCHAR lcaron
ENCODING 181
SWIDTH 337 0
DWIDTH 11 0
BBX 15 23 3 0
BITMAP
01EE
03EE
060E
0406
0C0C
0C08
1C10
1810
1800
1800
3800
3000
3000
3000
7000
6000
6000
6000
E000
E600
CC00
F000
E000
ENDCHAR

STARTCHAR sacute
ENCODING 182
SWIDTH 320 0
DWIDTH 11 0
BBX 13 21 2 0
BITMAP
0038
0060
00C0
0180
0300
0000
0000
07C0
0CE0
1860
1800
1C00
1E00
0F00
0700
0380
0380
C180
C180
C300
7C00
ENDCHAR

STARTCHAR caron
ENCODING 183
SWIDTH 340 0
DWIDTH 11 0
BBX 8 4 8 16
BITMAP
87
CC
F8
70
ENDCHAR

STARTCHAR commaaccent
ENCODING 184
SWIDTH 333 0
DWIDTH 11 0
BBX 4 7 3 -9
BITMAP
70
30
30
20
40
80
80
ENDCHAR

STARTCHAR scaron
ENCODING 185
SWIDTH 320 0
DWIDTH 11 0
BBX 13 21 2 0
BITMAP
0608
0210
0360
03E0
03C0
0000
0000
07C0
0CE0
1860
1800
1C00
1E00
0F00
0700
0380
0380
C180
C180
C300
7C00
ENDCHAR

STARTCHAR scommaaccent
ENCODING 186
SWIDTH 320 0
DWIDTH 11 0
BBX 11 22 2 -8
BITMAP
07C0
0CE0
1860
1800
1C00
1E00
0F00
0700
0380
0380
C180
C180
C300
7C00
0000
1000
3800
1800
1000
3000
6000
4000
ENDCHAR

STARTCHAR tcaron
ENCODING 187
SWIDTH 320 0
DWIDTH 11 0
BBX 12 23 3 0
BITMAP
0070
0070
0030
0030
0020
0240
0C80
0C00
0C00
1800
FF80
1800
1800
3800
3000
3000
3000
7000
6080
6300
6600
7800
7000
ENDCHAR

STARTCHAR zacute
ENCODING 188
SWIDTH 440 0
DWIDTH 15 0
BBX 16 20 1 0
BITMAP
000F
001C
0010
0060
0000
0000
03C6
07FC
0CD8
0C30
0460
00C0
0100
0200
0400
080C
100C
3F08
7FF8
83E0
ENDCHAR

STARTCHAR hungarumlaut
ENCODING 189
SWIDTH 400 0
DWIDTH 13 0
BBX 11 5 3 15
BITMAP
3DE0
3380
6300
C600
8400
ENDCHAR

STARTCHAR zcaron
ENCODING 190
SWIDTH 440 0
DWIDTH 15 0
BBX 16 20 1 0
BITMAP
00C3
004E
007C
0078
0000
0000
03C6
07FC
0CD8
0C30
0460
00C0
0100
0200
0400
080C
100C
3F08
7FF8
83E0
ENDCHAR

STARTCHAR zdotaccent
ENCODING 191
SWIDTH 440 0
DWIDTH 15 0
BBX 15 19 1 0
BITMAP
00E0
00E0
00E0
0000
0000
0786
0FFC
08D8
0830
0C60
0080
0100
0200
0C00
180C
200C
7E08
FFF8
87E0
ENDCHAR

STARTCHAR Racute
ENCODING 192
SWIDTH 600 0
DWIDTH 20 0
BBX 24 32 3 -5
BITMAP
0003C0
000700
000C00
001800
000000
000000
000000
00FE00
070780
0C2380
11C1C0
21C1C0
41C1C0
41C180
818380
818700
83FC00
83B000
C33000
633800
671800
071800
061C00
061C00
0E0C00
1E0E00
7FC600
000700
000303
000183
0000C6
00003C
ENDCHAR

STARTCHAR Aacute
ENCODING 193
SWIDTH 620 0
DWIDTH 20 0
BBX 25 30 -2 -3
BITMAP
00000380
00000600
00000C00
00001800
00003000
00000000
00000000
00000C00
0003FC00
000C1C00
00182800
00106800
0030D800
00309800
00111800
00033800
00063800
00043800
000C3000
00183000
001FF000
00303000
00603000
00407000
00807000
01807000
0300FE00
06000000
FC000000
70000000
ENDCHAR

STARTCHAR Acircumflex
ENCODING 194
SWIDTH 620 0
DWIDTH 20 0
BBX 24 30 -2 -3
BITMAP
00000E
00001E
00003A
000063
0000C1
000000
000000
00000C
0003FC
000C1C
001828
001068
0030D8
003098
001118
000338
000638
000438
000C30
001830
001FF0
003030
006030
004070
008070
018070
0300FE
060000
FC0000
700000
ENDCHAR

STARTCHAR Abreve
ENCODING 195
SWIDTH 620 0
DWIDTH 20 0
BBX 25 29 -2 -3
BITMAP
00002080
00002300
00003F00
00001C00
00000000
00000000
00000400
0003FC00
000C1C00
00182C00
00106800
0030D800
00309800
00111800
00033800
00063800
00043800
000C3000
00183000
001FF000
00303000
00603000
00407000
00807000
01807000
0300FE00
06000000
FC000000
70000000
ENDCHAR

STARTCHAR Adieresis
ENCODING 196
SWIDTH 620 0
DWIDTH 20 0
BBX 25 28 -2 -3
BITMAP
00007380
00007380
00007380
00000000
00000000
00000E00
0003FC00
000C0C00
00183C00
00106C00
0030D800
00309800
00111800
00033800
00023800
00043800
000C3800
00183000
001FF000
00303000
00603000
00407000
00C07000
01807000
0300FE00
06000000
FC000000
70000000
ENDCHAR

STARTCHAR Lacute
ENCODING 197
SWIDTH 580 0
DWIDTH 19 0
BBX 18 27 2 0
BITMAP
0003C0
000700
000600
001800
000000
000000
000000
001F00
003380
006180
00C000
018000
018000
038000
030000
030000
070000
070000
060000
060000
0E0000
0E0000
0C00C0
0C00C0
1C00C0
3BE080
FFFF00
ENDCHAR

STARTCHAR Cacute
ENCODING 198
SWIDTH 520 0
DWIDTH 17 0
BBX 18 29 3 -3
BITMAP
0003C0
000600
000C00
001800
000000
000000
000000
007E00
01C380
030180
060180
0C0100
180100
380100
300000
700000
700000
600000
E00000
E00000
E00000
E00000
E00000
E00000
700400
700800
381800
1C7000
0FC000
ENDCHAR

STARTCHAR Ccedilla
ENCODING 199
SWIDTH 520 0
DWIDTH 17 0
BBX 17 29 3 -10
BITMAP
007E00
018380
070100
0E0100
0C0100
180100
380100
300000
700000
600000
600000
E00000
E00000
E00000
E00000
E00000
E00000
700400
700800
381000
3C6000
0FC000
020000
040000
070000
030000
020000
060000
180000
ENDCHAR

STARTCHAR Ccaron
ENCODING 200
SWIDTH 520 0
DWIDTH 17 0
BBX 19 29 3 -3
BITMAP
0010E0
001980
001B00
000E00
000000
000000
000000
007E00
01C380
030180
060180
0C0100
180100
380100
300000
700000
700000
600000
E00000
E00000
E00000
E00000
E00000
E00000
700400
700800
381800
1C7000
0FC000
ENDCHAR

STARTCHAR Eacute
ENCODING 201
SWIDTH 620 0
DWIDTH 20 0
BBX 20 27 2 0
BITMAP
0001E0
000180
000300
000600
000C00
000000
000000
000000
03FFF0
0C6020
106020
20E000
60C000
40C000
C1C000
C1C100
C1FF00
C18200
638200
438000
030000
030000
070040
060060
040060
1FF8C0
201F00
ENDCHAR

STARTCHAR Eogonek
ENCODING 202
SWIDTH 620 0
DWIDTH 20 0
BBX 21 24 2 -5
BITMAP
03FFF8
0E7010
106010
20E000
60E000
40C000
C0C000
C1C180
C1FF00
C18100
618100
238000
038000
030000
070020
060030
060030
1FFC60
200FC0
000080
000180
000180
0001C0
0000F0
ENDCHAR

STARTCHAR Edieresis
ENCODING 203
SWIDTH 620 0
DWIDTH 20 0
BBX 20 25 2 0
BITMAP
000E60
000EE0
000C60
000000
000000
000000
01FFF0
0E7030
187010
207000
606000
40E000
40E000
C0C080
C1FF00
C1C100
61C100
218000
038000
038000
030060
070030
060030
1FFC60
200F80
ENDCHAR

STARTCHAR Ecaron
ENCODING 204
SWIDTH 620 0
DWIDTH 20 0
BBX 20 27 2 0
BITMAP
000830
000C60
000DC0
000780
000700
000000
000000
000000
03FFF0
0C6020
106020
20E000
60C000
40C000
C1C000
C1C100
C1FF00
C18200
638200
438000
030000
030000
070040
060060
040060
1FF8C0
201F00
ENDCHAR

STARTCHAR Iacute
ENCODING 205
SWIDTH 380 0
DWIDTH 13 0
BBX 16 27 2 0
BITMAP
0007
000E
0018
0010
0060
0000
0000
0000
07FC
00E0
00C0
01C0
0180
0180
0180
0380
0300
0300
0300
0700
0600
0600
0E00
0E00
0C00
1C00
FF80
ENDCHAR

STARTCHAR Icircumflex
ENCODING 206
SWIDTH 380 0
DWIDTH 13 0
BBX 14 27 2 0
BITMAP
0038
0078
00E8
008C
0304
0000
0000
0000
07FC
00E0
00C0
01C0
0180
0180
0180
0380
0300
0300
0300
0700
0600
0600
0E00
0E00
0C00
1C00
FF80
ENDCHAR

STARTCHAR Dcaron
ENCODING 207
SWIDTH 700 0
DWIDTH 23 0
BBX 22 26 3 0
BITMAP
000438
000660
0003C0
000380
000000
000000
000000
00FF00
0301C0
0C10F0
18F078
306038
60601C
40E01C
C0E01C
80C01C
80C01C
81C01C
81C01C
C18038
718038
238070
0300E0
0301C0
060700
1FFC00
ENDCHAR

STARTCHAR Dcroat
ENCODING 208
SWIDTH 700 0
DWIDTH 23 0
BBX 22 20 3 0
BITMAP
00FF00
0383C0
0400E0
18F070
307038
206038
40601C
40E01C
80E01C
80C01C
8FFF1C
81C01C
C1C018
C18038
718030
238070
0300E0
0301C0
060700
1FFC00
ENDCHAR

STARTCHAR Nacute
ENCODING 209
SWIDTH 700 0
DWIDTH 23 0
BBX 28 29 2 -2
BITMAP
00000E00
00001C00
00003800
00002000
0000C000
00000000
00000000
000000E0
00F801F0
071C0310
0C1C0600
183C0400
102C0400
302E0C00
302E0800
30260800
18660800
10471000
00431000
00439000
00839000
0081A000
0081E000
0181E000
0100E000
0300E000
82004000
E6004000
78004000
ENDCHAR

STARTCHAR Ncaron
ENCODING 210
SWIDTH 700 0
DWIDTH 23 0
BBX 28 29 2 -2
BITMAP
00008100
0000C600
00004C00
00007800
00007000
00000000
00000000
000000E0
00F801F0
071C0310
0C1C0600
183C0400
102C0400
302E0C00
302E0800
30260800
18660800
10471000
00431000
00439000
00839000
0081A000
0081E000
0181E000
0100E000
0300E000
82004000
E6004000
78004000
ENDCHAR

STARTCHAR Oacute
ENCODING 211
SWIDTH 600 0
DWIDTH 20 0
BBX 18 26 3 0
BITMAP
000700
000C00
001800
003000
000000
000000
000000
01FC00
070F00
0C0780
180380
3001C0
3001C0
7001C0
6001C0
E001C0
E001C0
E001C0
E00180
E00380
E00300
F00700
700600
380C00
1C3800
0FE000
ENDCHAR

STARTCHAR Ocircumflex
ENCODING 212
SWIDTH 600 0
DWIDTH 20 0
BBX 18 26 3 0
BITMAP
001E00
003A00
006200
00C300
000000
000000
000000
01FC00
070F00
0C0780
180380
3001C0
3001C0
7001C0
6001C0
E001C0
E001C0
E001C0
E00180
E00380
E00300
F00700
700600
380C00
1C3800
0FE000
ENDCHAR

STARTCHAR Ohungarumlaut
ENCODING 213
SWIDTH 600 0
DWIDTH 20 0
BBX 19 27 3 0
BITMAP
001CE0
0039C0
007380
006300
00C600
008400
000000
000000
01FC00
070F00
0C0780
180380
3001C0
3001C0
7001C0
6001C0
E001C0
E001C0
E001C0
E00180
E00380
E00300
F00700
700600
380C00
1C3800
0FE000
ENDCHAR

STARTCHAR Odieresis
ENCODING 214
SWIDTH 600 0
DWIDTH 20 0
BBX 18 25 4 0
BITMAP
00E700
00E700
006700
000000
000000
000000
01FC00
061E00
0C0700
180380
3003C0
3001C0
6001C0
6001C0
E001C0
E001C0
E001C0
E00380
E00380
E00300
F00600
700600
380C00
3C3000
0FC000
ENDCHAR

STARTCHAR multiply
ENCODING 215
SWIDTH 520 0
DWIDTH 17 0
BBX 12 12 6 3
BITMAP
C070
E0E0
71C0
3B80
1F00
0E00
1F00
3B80
71C0
E0F0
C060
4020
ENDCHAR

STARTCHAR Rcaron
ENCODING 216
SWIDTH 600 0
DWIDTH 20 0
BBX 24 32 3 -5
BITMAP
0020C0
003300
001A00
001C00
000000
000000
000000
00FE00
070780
0C2380
11C1C0
21C1C0
41C1C0
41C180
818380
818700
83FC00
83B000
C33000
633800
671800
071800
061C00
061C00
0E0C00
1E0E00
7FC600
000700
000303
000183
0000C6
00003C
ENDCHAR

STARTCHAR Uring
ENCODING 217
SWIDTH 740 0
DWIDTH 24 0
BBX 23 27 4 0
BITMAP
0003C0
000660
000420
000660
0003CC
00000E
000006
01E006
1FE006
20C006
41C006
C18006
C38004
C30004
C30004
07000C
060008
060008
0E0010
0E0010
0E0030
0E0060
0E00C0
070180
078700
03FE00
01F800
ENDCHAR

STARTCHAR Uacute
ENCODING 218
SWIDTH 740 0
DWIDTH 24 0
BBX 23 27 4 0
BITMAP
000070
0000E0
0000C0
000100
00020C
00000E
00000E
002006
1FE006
30C006
41C006
C18006
C38004
C30004
C30004
07000C
060008
060018
0E0010
0E0030
0E0020
0E0060
0E00C0
0F0180
078700
03FE00
01F800
ENDCHAR

STARTCHAR Uhungarumlaut
ENCODING 219
SWIDTH 740 0
DWIDTH 24 0
BBX 23 27 4 0
BITMAP
0007BC
000738
000E70
000C60
00188C
00000E
00000E
002006
1FE006
30C006
41C006
C18006
C38004
C30004
C30004
07000C
060008
060018
0E0010
0E0030
0E0020
0E0060
0E00C0
0F0180
078700
03FE00
01F800
ENDCHAR

STARTCHAR Udieresis
ENCODING 220
SWIDTH 740 0
DWIDTH 24 0
BBX 23 25 4 0
BITMAP
000E70
000E70
000E7C
00000C
00000E
000006
0FE006
30C006
41C006
C18006
C38004
C30004
C3000C
070008
060008
060018
0E0010
0E0030
0E0020
0E0040
0E00C0
0F0180
078700
03FC00
01F000
ENDCHAR

STARTCHAR Yacute
ENCODING 221
SWIDTH 560 0
DWIDTH 18 0
BBX 23 27 3 0
BITMAP
0000E0
0001C0
000300
000200
000400
00000E
00001E
008030
07C060
19C0C0
20E180
40E100
C06200
807200
807400
C03C00
E03800
403800
007000
007000
006000
006000
00E000
00E000
00C000
01C000
07FC00
ENDCHAR

STARTCHAR Tcommaaccent
ENCODING 222
SWIDTH 500 0
DWIDTH 17 0
BBX 21 30 3 -8
BITMAP
000018
000018
03FC18
0FFFE0
303800
603800
403000
803000
807000
807000
C06000
E06000
40E000
00E000
00C000
00C000
01C000
01C000
018000
038000
038000
1FF800
000000
020000
030000
030000
030000
020000
040000
080000
ENDCHAR

STARTCHAR germandbls
ENCODING 223
SWIDTH 420 0
DWIDTH 14 0
BBX 23 31 -6 -8
BITMAP
0000F8
00018E
000306
000306
000606
000604
000E0C
000E18
000C10
000C20
001C60
001CC0
0018E0
0018E0
003870
003870
003038
003038
007018
007218
006610
006620
00E3C0
00C000
00C000
00C000
018000
010000
020000
FC0000
F80000
ENDCHAR

STARTCHAR racute
ENCODING 224
SWIDTH 300 0
DWIDTH 10 0
BBX 12 20 3 0
BITMAP
00F0
01C0
0180
0600
0000
0020
1CE0
3DE0
5B00
9A00
1C00
3800
3800
3000
3000
7000
7000
6000
6000
E000
ENDCHAR

STARTCHAR aacute
ENCODING 225
SWIDTH 420 0
DWIDTH 14 0
BBX 14 21 3 0
BITMAP
001C
0038
0060
0040
0080
0000
0010
01F0
07F0
0C60
1060
30E0
20E0
60C0
60C0
C1C0
C1C0
C388
E590
F9E0
7180
ENDCHAR

STARTCHAR acircumflex
ENCODING 226
SWIDTH 420 0
DWIDTH 14 0
BBX 15 21 3 0
BITMAP
0018
003C
006C
00C4
0106
0000
0010
01F0
07F0
0C60
1060
30E0
20E0
60C0
60C0
C1C0
C1C0
C388
E590
F9E0
7180
ENDCHAR

STARTCHAR abreve
ENCODING 227
SWIDTH 420 0
DWIDTH 14 0
BBX 15 20 3 0
BITMAP
0182
008C
00F8
0070
0000
0010
01F0
07F0
0C60
1060
30E0
20E0
60C0
60C0
C1C0
C1C0
C388
E590
F9E0
7180
ENDCHAR

STARTCHAR adieresis
ENCODING 228
SWIDTH 420 0
DWIDTH 14 0
BBX 15 19 3 0
BITMAP
01CE
01CE
00CE
0000
0010
01F0
07E0
0860
10E0
30C0
60C0
60C0
41C0
C180
C380
C388
EDB0
FBE0
7380
ENDCHAR

STARTCHAR lacute
ENCODING 229
SWIDTH 240 0
DWIDTH 8 0
BBX 13 27 3 0
BITMAP
0038
0060
01C0
0000
00F8
03F0
0600
0600
0C00
0C00
0C00
1800
1800
1800
3800
3800
3000
3000
7000
7000
6000
6000
6000
E600
CC00
F000
6000
ENDCHAR

STARTCHAR cacute
ENCODING 230
SWIDTH 340 0
DWIDTH 11 0
BBX 12 20 3 0
BITMAP
00F0
00C0
0180
0300
0000
0000
0380
0FC0
18C0
3000
2000
6000
6000
C000
C000
C000
C080
E300
FE00
7800
ENDCHAR

STARTCHAR ccedilla
ENCODING 231
SWIDTH 340 0
DWIDTH 11 0
BBX 10 20 3 -6
BITMAP
03C0
0FC0
18C0
1000
3000
6000
6000
6000
E000
E000
E080
E300
7E00
1800
3000
3800
1800
1800
3000
E000
ENDCHAR

STARTCHAR ccaron
ENCODING 232
SWIDTH 340 0
DWIDTH 11 0
BBX 13 21 3 0
BITMAP
0408
0610
0260
03C0
0380
0000
0000
0380
0FC0
18C0
3000
2000
6000
6000
C000
C000
C000
C080
E300
FE00
7800
ENDCHAR

STARTCHAR eacute
ENCODING 233
SWIDTH 340 0
DWIDTH 11 0
BBX 12 21 3 0
BITMAP
0070
00E0
01C0
0100
0200
0000
0000
07C0
0DC0
18C0
30C0
3180
7300
6C00
7000
E000
E080
E180
E300
FE00
7800
ENDCHAR

STARTCHAR eogonek
ENCODING 234
SWIDTH 340 0
DWIDTH 11 0
BBX 10 20 3 -6
BITMAP
07C0
0DC0
18C0
30C0
3180
7300
6C00
7000
E000
E080
E180
E300
FC00
7800
2000
2000
6000
6000
7000
3C00
ENDCHAR

STARTCHAR edieresis
ENCODING 235
SWIDTH 340 0
DWIDTH 11 0
BBX 13 19 3 0
BITMAP
0738
0738
0338
0000
0000
07C0
0DC0
18C0
30C0
3180
7300
6C00
7000
E000
E080
E180
E300
FE00
7800
ENDCHAR

STARTCHAR ecaron
ENCODING 236
SWIDTH 340 0
DWIDTH 11 0
BBX 13 21 3 0
BITMAP
0408
0230
0360
03C0
0380
0000
0000
07C0
0DC0
18C0
30C0
3180
7300
6C00
7000
E000
E080
E180
E300
FE00
7800
ENDCHAR

STARTCHAR iacute
ENCODING 237
SWIDTH 240 0
DWIDTH 8 0
BBX 9 21 3 0
BITMAP
0380
0700
0600
0C00
1800
0000
0000
1C00
3C00
DC00
9800
1800
3800
3000
3000
7000
7000
6200
6C00
7800
6000
ENDCHAR

STARTCHAR icircumflex
ENCODING 238
SWIDTH 240 0
DWIDTH 8 0
BBX 9 21 3 0
BITMAP
0700
0F00
0D00
1980
6080
0000
0000
1C00
3C00
DC00
9800
1800
3800
3000
3000
7000
7000
6200
6C00
7800
6000
ENDCHAR

STARTCHAR dcaron
ENCODING 239
SWIDTH 483 0
DWIDTH 16 0
BBX 22 23 3 0
BITMAP
0003DC
0007DC
000C0C
00080C
001808
001810
003830
003020
003000
01F000
07F000
0C6000
186000
306000
20E000
60C000
60C000
C0C000
C1C000
C38800
E5D000
F9E000
718000
ENDCHAR

STARTCHAR dcroat
ENCODING 240
SWIDTH 440 0
DWIDTH 15 0
BBX 19 23 3 0
BITMAP
0001E0
0007E0
000C00
001800
001800
03FF80
003000
003000
003000
01F000
07E000
086000
106000
30E000
20E000
60C000
60C000
C0C000
C1C000
C38800
E69000
F9E000
F1C000
ENDCHAR

STARTCHAR nacute
ENCODING 241
SWIDTH 460 0
DWIDTH 15 0
BBX 14 21 3 0
BITMAP
0038
0070
00E0
0080
0100
0000
0000
1C30
3CF8
D938
9A30
1C30
3870
3860
3060
30E0
30C0
70C4
60C8
60F0
00C0
ENDCHAR

STARTCHAR ncaron
ENCODING 242
SWIDTH 460 0
DWIDTH 15 0
BBX 14 21 3 0
BITMAP
0104
0108
01B0
01F0
00E0
0000
0000
1C30
3CF8
D938
9A30
1C30
3870
3860
3060
30E0
30C0
70C4
60C8
60F0
00C0
ENDCHAR

STARTCHAR oacute
ENCODING 243
SWIDTH 400 0
DWIDTH 13 0
BBX 12 21 3 0
BITMAP
0070
00E0
00C0
0180
0200
0000
0000
07C0
0CE0
1870
3070
7070
6070
6070
E060
E060
E0E0
E0C0
E180
7300
3E00
ENDCHAR

STARTCHAR ocircumflex
ENCODING 244
SWIDTH 400 0
DWIDTH 13 0
BBX 13 21 3 0
BITMAP
0070
00F0
01B0
0310
0408
0000
0000
07C0
0CE0
1870
3070
7070
6070
6070
E060
E060
E0E0
E0C0
E180
7300
3E00
ENDCHAR

STARTCHAR ohungarumlaut
ENCODING 245
SWIDTH 400 0
DWIDTH 13 0
BBX 16 21 3 0
BITMAP
00EF
01CE
019C
0318
0630
0420
0000
07C0
0CE0
1870
3070
7070
6070
6070
E060
E060
E0E0
E0C0
E180
7300
3E00
ENDCHAR

STARTCHAR odieresis
ENCODING 246
SWIDTH 400 0
DWIDTH 13 0
BBX 13 19 3 0
BITMAP
0738
0738
0738
0000
0000
07C0
0CE0
1070
3070
6070
6070
6070
E060
E060
E0E0
E0C0
E180
7300
3C00
ENDCHAR

STARTCHAR divide
ENCODING 247
SWIDTH 520 0
DWIDTH 17 0
BBX 15 12 4 3
BITMAP
0380
0380
0100
0000
0000
FFFE
FFFE
0000
0000
0380
0380
0180
ENDCHAR

STARTCHAR rcaron
ENCODING 248
SWIDTH 300 0
DWIDTH 10 0
BBX 13 20 3 0
BITMAP
0418
0660
03C0
0380
0000
0020
1CE0
3DE0
5B00
9A00
1C00
3800
3800
3000
3000
7000
7000
6000
6000
E000
ENDCHAR

STARTCHAR uring
ENCODING 249
SWIDTH 460 0
DWIDTH 15 0
BBX 14 21 3 0
BITMAP
00E0
0110
0110
0110
00E0
0000
0000
1C18
3C18
CC38
1C30
1C30
1830
1830
3860
3060
30E0
7164
7A68
7C70
3060
ENDCHAR

STARTCHAR uacute
ENCODING 250
SWIDTH 460 0
DWIDTH 15 0
BBX 14 21 3 0
BITMAP
001C
0038
0030
0040
0080
0000
0000
1C18
3C18
CC38
1C30
1C30
1830
1870
3860
30E0
30E0
7144
76E8
7CF0
3040
ENDCHAR

STARTCHAR uhungarumlaut
ENCODING 251
SWIDTH 460 0
DWIDTH 15 0
BBX 16 21 3 0
BITMAP
01EF
01DC
0398
0230
0460
0000
0000
1C18
3C18
CC38
1C30
1C30
1830
1870
3860
30E0
30E0
7144
76E8
7CF0
3040
ENDCHAR

STARTCHAR udieresis
ENCODING 252
SWIDTH 460 0
DWIDTH 15 0
BBX 15 19 2 0
BITMAP
01CE
01CE
01CE
0000
0000
1C1C
3C1C
CC18
1C18
1C38
1830
1830
3870
3070
30E0
7166
766C
7CF8
3060
ENDCHAR

STARTCHAR yacute
ENCODING 253
SWIDTH 400 0
DWIDTH 13 0
BBX 16 29 -1 -8
BITMAP
0007
000E
000C
0018
0030
0000
0000
0383
0783
09C3
00C3
00E2
0062
0062
0072
0034
0034
0034
0038
0038
0030
0030
0020
0040
00C0
0080
0300
FE00
7800
ENDCHAR

STARTCHAR tcommaaccent
ENCODING 254
SWIDTH 320 0
DWIDTH 11 0
BBX 10 26 2 -8
BITMAP
0100
0600
0600
0600
0E00
7FC0
0C00
0C00
1C00
1800
1800
1800
3800
3040
3080
3300
3E00
3800
0000
2000
7000
3000
3000
2000
4000
8000
ENDCHAR

STARTCHAR dotaccent
ENCODING 255
SWIDTH 220 0
DWIDTH 7 0
BBX 3 3 7 16
BITMAP
E0
E0
E0
ENDCHAR
ENDFONT
